<svg xmlns="http://www.w3.org/2000/svg" width="21" height="21" viewBox="0 0 21 21">
  <path id="Icon_color" data-name="Icon color" d="M18.667,21H2.333A2.336,2.336,0,0,1,0,18.667V3.5A3.5,3.5,0,0,1,3.5,0H16.334a2.336,2.336,0,0,1,2.333,2.333H3.5a1.167,1.167,0,0,0,0,2.333H18.667A2.336,2.336,0,0,1,21,7V18.667A2.336,2.336,0,0,1,18.667,21ZM10.5,9.333A1.168,1.168,0,0,0,9.333,10.5v4.666A1.168,1.168,0,0,0,10.5,16.334h8.167v-7ZM13.417,14H12.25a.584.584,0,0,1-.584-.583V12.25a.584.584,0,0,1,.584-.584h1.167A.584.584,0,0,1,14,12.25v1.167A.583.583,0,0,1,13.417,14Z" fill="#73797d"/>
</svg>
