<svg xmlns="http://www.w3.org/2000/svg" width="20.998" height="21.587" viewBox="0 0 20.998 21.587">
  <path id="ic_settings_24px" d="M20.791,13.851a8.411,8.411,0,0,0,.076-1.058,8.412,8.412,0,0,0-.076-1.058l2.277-1.781a.545.545,0,0,0,.13-.691L21.04,5.529a.542.542,0,0,0-.658-.237L17.694,6.371A7.886,7.886,0,0,0,15.87,5.314l-.41-2.86A.526.526,0,0,0,14.931,2H10.613a.526.526,0,0,0-.529.453l-.41,2.86A8.293,8.293,0,0,0,7.85,6.371L5.163,5.292a.526.526,0,0,0-.658.237L2.346,9.264a.532.532,0,0,0,.13.691l2.277,1.781a8.56,8.56,0,0,0-.076,1.058,8.56,8.56,0,0,0,.076,1.058L2.475,15.632a.545.545,0,0,0-.13.691L4.5,20.057a.543.543,0,0,0,.658.237L7.85,19.215a7.886,7.886,0,0,0,1.824,1.058l.41,2.86a.526.526,0,0,0,.529.453h4.317a.526.526,0,0,0,.529-.453l.41-2.86a8.293,8.293,0,0,0,1.824-1.058l2.688,1.079a.526.526,0,0,0,.658-.237L23.2,16.323a.545.545,0,0,0-.13-.691Zm-8.019,2.72a3.778,3.778,0,1,1,3.778-3.778A3.782,3.782,0,0,1,12.772,16.571Z" transform="translate(-2.271 -2)" fill="#73797d"/>
</svg>
