<svg xmlns="http://www.w3.org/2000/svg" width="21" height="26" viewBox="0 0 21 26">
  <path id="Icon_color" data-name="Icon color" d="M3.709,26h-.4a.626.626,0,0,1-.451-.194L.38,23.361A1.354,1.354,0,0,1,0,22.438V1.3A1.308,1.308,0,0,1,1.312,0H19.688A1.308,1.308,0,0,1,21,1.3V22.49a1.286,1.286,0,0,1-.38.91l-2.508,2.353a.619.619,0,0,1-.451.2h-.4a.623.623,0,0,1-.451-.2L14.437,23.4a.674.674,0,0,0-.892,0L11.17,25.753a.623.623,0,0,1-.451.2h-.4a.618.618,0,0,1-.45-.2L7.494,23.4a.672.672,0,0,0-.931,0l-2.4,2.406A.622.622,0,0,1,3.709,26Zm2.2-13a.654.654,0,0,0-.657.651v1.3a.654.654,0,0,0,.657.649h5.249a.654.654,0,0,0,.657-.649v-1.3A.654.654,0,0,0,11.156,13Zm0-5.2a.654.654,0,0,0-.657.649v1.3a.654.654,0,0,0,.657.651h9.188a.654.654,0,0,0,.656-.651V8.45a.653.653,0,0,0-.656-.649Z" fill="#73797d"/>
</svg>
